STARTFONT 2.1
FONT -Monotype-Monotype Corsiva-Regular-R-Normal--17-120-100-100-P-75-iso8859-9
SIZE 12 100 100
FONTBOUNDINGBOX 21 19 -4 -5

STARTPROPERTIES 24
FOUNDRY "Monotype"
FAMILY_NAME "Monotype Corsiva"
WEIGHT_NAME "Regular"
SLANT "R"
SETWIDTH_NAME "Normal"
ADD_STYLE_NAME ""
PIXEL_SIZE 17
POINT_SIZE 120
RESOLUTION_X 100
RESOLUTION_Y 100
SPACING "P"
AVERAGE_WIDTH 75
CHARSET_REGISTRY "iso8859"
CHARSET_ENCODING "9"
FACE_NAME "Monotype Corsiva ISO Latin5"
_DEC_DEVICE_FONTNAMES "PS=monotypecorsiva-lat5"
COPYRIGHT "Copyright (c) 1994 Monotype Typography Ltd."
CAP_HEIGHT 13
X_HEIGHT 9
WEIGHT 10
QUAD_WIDTH 9
DEFAULT_CHAR 160
FONT_DESCENT 6
FONT_ASCENT 15
ENDPROPERTIES

CHARS 191

STARTCHAR space
ENCODING 32
SWIDTH 220 0
DWIDTH 4 0
BBX 0 0 0 0
BITMAP
ENDCHAR

STARTCHAR exclam
ENCODING 33
SWIDTH 280 0
DWIDTH 5 0
BBX 2 11 2 0
BITMAP
40
40
40
40
80
80
80
80
00
80
80
ENDCHAR

STARTCHAR quotedbl
ENCODING 34
SWIDTH 220 0
DWIDTH 4 0
BBX 3 5 1 6
BITMAP
A0
A0
A0
A0
A0
ENDCHAR

STARTCHAR numbersign
ENCODING 35
SWIDTH 680 0
DWIDTH 12 0
BBX 9 10 2 0
BITMAP
0900
0900
1200
7F80
1200
2400
FF00
2400
4800
4800
ENDCHAR

STARTCHAR dollar
ENCODING 36
SWIDTH 440 0
DWIDTH 7 0
BBX 7 13 0 -2
BITMAP
04
1C
2A
28
28
18
14
14
14
98
70
20
20
ENDCHAR

STARTCHAR percent
ENCODING 37
SWIDTH 680 0
DWIDTH 12 0
BBX 9 10 2 0
BITMAP
2100
5200
9200
9400
A900
4A80
1480
2480
2500
4200
ENDCHAR

STARTCHAR ampersand
ENCODING 38
SWIDTH 780 0
DWIDTH 13 0
BBX 13 12 0 -1
BITMAP
0008
00F0
0120
0240
3A40
4880
9080
8880
8500
4210
3D10
00E0
ENDCHAR

STARTCHAR quoteright
ENCODING 39
SWIDTH 240 0
DWIDTH 4 0
BBX 2 4 1 7
BITMAP
40
40
40
80
ENDCHAR

STARTCHAR parenleft
ENCODING 40
SWIDTH 260 0
DWIDTH 4 0
BBX 7 16 0 -5
BITMAP
06
08
10
10
20
40
40
40
80
80
80
80
80
80
40
40
ENDCHAR

STARTCHAR parenright
ENCODING 41
SWIDTH 220 0
DWIDTH 4 0
BBX 7 16 -3 -5
BITMAP
04
04
02
02
02
02
02
02
04
04
04
08
10
10
20
C0
ENDCHAR

STARTCHAR asterisk
ENCODING 42
SWIDTH 420 0
DWIDTH 7 0
BBX 5 6 1 5
BITMAP
20
20
F8
50
70
88
ENDCHAR

STARTCHAR plus
ENCODING 43
SWIDTH 520 0
DWIDTH 9 0
BBX 7 7 1 1
BITMAP
10
10
10
FE
10
10
10
ENDCHAR

STARTCHAR comma
ENCODING 44
SWIDTH 220 0
DWIDTH 4 0
BBX 2 4 1 -2
BITMAP
40
40
40
80
ENDCHAR

STARTCHAR minus
ENCODING 45
SWIDTH 600 0
DWIDTH 10 0
BBX 7 1 2 4
BITMAP
FE
ENDCHAR

STARTCHAR period
ENCODING 46
SWIDTH 220 0
DWIDTH 4 0
BBX 1 2 2 0
BITMAP
80
80
ENDCHAR

STARTCHAR slash
ENCODING 47
SWIDTH 340 0
DWIDTH 6 0
BBX 9 16 0 -5
BITMAP
0080
0100
0100
0200
0200
0400
0400
0800
0800
1000
1000
2000
2000
4000
4000
8000
ENDCHAR

STARTCHAR zero
ENCODING 48
SWIDTH 440 0
DWIDTH 7 0
BBX 6 10 1 0
BITMAP
18
24
44
84
84
84
84
88
90
60
ENDCHAR

STARTCHAR one
ENCODING 49
SWIDTH 440 0
DWIDTH 7 0
BBX 5 10 1 0
BITMAP
08
38
08
10
10
10
20
20
20
F8
ENDCHAR

STARTCHAR two
ENCODING 50
SWIDTH 440 0
DWIDTH 7 0
BBX 7 10 0 0
BITMAP
1C
22
22
02
04
08
10
20
42
FC
ENDCHAR

STARTCHAR three
ENCODING 51
SWIDTH 440 0
DWIDTH 7 0
BBX 6 10 1 0
BITMAP
18
24
04
08
30
08
08
08
90
60
ENDCHAR

STARTCHAR four
ENCODING 52
SWIDTH 440 0
DWIDTH 7 0
BBX 7 10 0 0
BITMAP
04
0C
14
24
24
48
FE
08
08
08
ENDCHAR

STARTCHAR five
ENCODING 53
SWIDTH 440 0
DWIDTH 7 0
BBX 7 10 0 0
BITMAP
1E
10
20
38
04
04
04
04
88
70
ENDCHAR

STARTCHAR six
ENCODING 54
SWIDTH 440 0
DWIDTH 7 0
BBX 6 10 1 0
BITMAP
1C
20
40
B0
C8
88
88
88
90
60
ENDCHAR

STARTCHAR seven
ENCODING 55
SWIDTH 440 0
DWIDTH 7 0
BBX 6 10 1 0
BITMAP
7C
84
08
10
20
40
40
80
80
80
ENDCHAR

STARTCHAR eight
ENCODING 56
SWIDTH 440 0
DWIDTH 7 0
BBX 7 10 0 0
BITMAP
1C
22
22
14
38
44
84
84
88
70
ENDCHAR

STARTCHAR nine
ENCODING 57
SWIDTH 440 0
DWIDTH 7 0
BBX 6 10 1 0
BITMAP
18
24
44
44
44
4C
34
08
10
E0
ENDCHAR

STARTCHAR colon
ENCODING 58
SWIDTH 260 0
DWIDTH 4 0
BBX 2 7 1 0
BITMAP
40
40
00
00
00
80
80
ENDCHAR

STARTCHAR semicolon
ENCODING 59
SWIDTH 240 0
DWIDTH 4 0
BBX 3 9 0 -2
BITMAP
20
20
00
00
00
40
40
40
80
ENDCHAR

STARTCHAR less
ENCODING 60
SWIDTH 520 0
DWIDTH 9 0
BBX 7 7 1 1
BITMAP
02
0C
30
C0
30
0C
02
ENDCHAR

STARTCHAR equal
ENCODING 61
SWIDTH 520 0
DWIDTH 9 0
BBX 8 3 1 3
BITMAP
FF
00
FF
ENDCHAR

STARTCHAR greater
ENCODING 62
SWIDTH 520 0
DWIDTH 9 0
BBX 7 7 1 1
BITMAP
80
60
18
06
18
60
80
ENDCHAR

STARTCHAR question
ENCODING 63
SWIDTH 380 0
DWIDTH 6 0
BBX 6 11 0 0
BITMAP
18
24
24
04
08
30
40
40
00
80
80
ENDCHAR

STARTCHAR at
ENCODING 64
SWIDTH 700 0
DWIDTH 12 0
BBX 10 11 2 -1
BITMAP
1F00
6080
4640
8A40
9240
A240
A480
BB00
8080
4100
3E00
ENDCHAR

STARTCHAR A
ENCODING 65
SWIDTH 620 0
DWIDTH 11 0
BBX 12 12 -1 -2
BITMAP
03E0
0420
0460
02A0
0120
0240
07C0
0440
0840
10F0
2000
C000
ENDCHAR

STARTCHAR B
ENCODING 66
SWIDTH 600 0
DWIDTH 10 0
BBX 10 10 0 0
BITMAP
0F80
3040
4440
8480
8F80
8840
8840
5040
1080
7F00
ENDCHAR

STARTCHAR C
ENCODING 67
SWIDTH 520 0
DWIDTH 9 0
BBX 9 11 0 -1
BITMAP
1F00
2080
4080
4000
8000
8000
8000
8000
8200
4200
3C00
ENDCHAR

STARTCHAR D
ENCODING 68
SWIDTH 700 0
DWIDTH 12 0
BBX 12 10 0 0
BITMAP
0FC0
3020
4410
8410
8810
8810
8820
5020
1040
7F80
ENDCHAR

STARTCHAR E
ENCODING 69
SWIDTH 620 0
DWIDTH 11 0
BBX 10 10 1 0
BITMAP
3FC0
4440
8400
8880
8F80
4880
1000
1040
1040
7F80
ENDCHAR

STARTCHAR F
ENCODING 70
SWIDTH 580 0
DWIDTH 10 0
BBX 10 10 0 0
BITMAP
3FC0
4440
8400
8880
8F80
4880
1000
1000
1000
7C00
ENDCHAR

STARTCHAR G
ENCODING 71
SWIDTH 620 0
DWIDTH 11 0
BBX 9 14 2 -4
BITMAP
1F00
2080
4080
4000
8000
8000
8700
8200
4200
3C00
0400
0400
4800
3000
ENDCHAR

STARTCHAR H
ENCODING 72
SWIDTH 680 0
DWIDTH 12 0
BBX 14 11 0 0
BITMAP
0018
3C24
4440
4440
2840
0F80
0880
1080
1100
9100
61C0
ENDCHAR

STARTCHAR I
ENCODING 73
SWIDTH 380 0
DWIDTH 6 0
BBX 7 10 0 0
BITMAP
3E
08
08
10
10
10
20
20
20
F8
ENDCHAR

STARTCHAR J
ENCODING 74
SWIDTH 400 0
DWIDTH 7 0
BBX 7 13 0 -3
BITMAP
1E
22
22
12
04
04
04
04
08
08
08
90
60
ENDCHAR

STARTCHAR K
ENCODING 75
SWIDTH 660 0
DWIDTH 11 0
BBX 12 12 1 -2
BITMAP
79E0
8880
8B00
5400
1C00
1400
2200
2200
2100
F900
0090
0060
ENDCHAR

STARTCHAR L
ENCODING 76
SWIDTH 580 0
DWIDTH 10 0
BBX 9 10 0 0
BITMAP
0600
0900
1000
1000
1000
2000
2000
2080
3880
C700
ENDCHAR

STARTCHAR M
ENCODING 77
SWIDTH 840 0
DWIDTH 14 0
BBX 14 10 0 0
BITMAP
1E04
220C
4318
4528
2528
0548
0950
0990
9110
613C
ENDCHAR

STARTCHAR N
ENCODING 78
SWIDTH 700 0
DWIDTH 12 0
BBX 14 11 0 -1
BITMAP
1C0C
2610
4610
4520
2520
0920
0940
08C0
08C0
9040
6000
ENDCHAR

STARTCHAR O
ENCODING 79
SWIDTH 600 0
DWIDTH 10 0
BBX 10 10 0 0
BITMAP
1F00
2080
4040
4040
8040
8040
8080
8080
4100
3E00
ENDCHAR

STARTCHAR P
ENCODING 80
SWIDTH 540 0
DWIDTH 9 0
BBX 10 10 0 0
BITMAP
0F80
3040
4440
8440
8880
8F00
8800
5000
1000
3C00
ENDCHAR

STARTCHAR Q
ENCODING 81
SWIDTH 600 0
DWIDTH 10 0
BBX 12 15 0 -5
BITMAP
1F00
2080
4040
4040
8040
8040
8080
8080
4100
3E00
0800
0800
0400
0310
00E0
ENDCHAR

STARTCHAR R
ENCODING 82
SWIDTH 600 0
DWIDTH 10 0
BBX 13 12 0 -2
BITMAP
0F80
3040
4440
8440
8880
8F00
4900
1100
1080
3C80
0048
0030
ENDCHAR

STARTCHAR S
ENCODING 83
SWIDTH 460 0
DWIDTH 8 0
BBX 8 11 0 -1
BITMAP
0F
11
21
20
18
04
04
04
84
88
70
ENDCHAR

STARTCHAR T
ENCODING 84
SWIDTH 500 0
DWIDTH 9 0
BBX 10 11 0 0
BITMAP
0040
3F80
4400
8400
8800
4800
0800
1000
1000
1000
3C00
ENDCHAR

STARTCHAR U
ENCODING 85
SWIDTH 740 0
DWIDTH 13 0
BBX 11 11 1 0
BITMAP
0040
7820
8820
9020
5020
1040
2040
2040
2080
1100
0E00
ENDCHAR

STARTCHAR V
ENCODING 86
SWIDTH 640 0
DWIDTH 11 0
BBX 12 11 0 0
BITMAP
0020
3810
4810
8820
8840
5080
1100
1200
1400
1800
1000
ENDCHAR

STARTCHAR W
ENCODING 87
SWIDTH 880 0
DWIDTH 15 0
BBX 16 11 0 0
BITMAP
0002
3821
4841
88C2
88C2
5144
1248
1248
1450
1860
1040
ENDCHAR

STARTCHAR X
ENCODING 88
SWIDTH 560 0
DWIDTH 10 0
BBX 13 12 -1 -1
BITMAP
0018
0E20
0240
0280
0300
0200
0300
0500
0900
1100
21C0
C000
ENDCHAR

STARTCHAR Y
ENCODING 89
SWIDTH 560 0
DWIDTH 10 0
BBX 12 10 0 0
BITMAP
3030
4840
8480
8500
4600
0400
0800
0800
0800
3E00
ENDCHAR

STARTCHAR Z
ENCODING 90
SWIDTH 620 0
DWIDTH 11 0
BBX 9 10 1 0
BITMAP
1F80
2100
0200
0400
0800
0800
1000
2000
4080
FF00
ENDCHAR

STARTCHAR bracketleft
ENCODING 91
SWIDTH 240 0
DWIDTH 4 0
BBX 6 16 0 -5
BITMAP
1C
10
10
10
20
20
20
20
40
40
40
40
80
80
80
E0
ENDCHAR

STARTCHAR backslash
ENCODING 92
SWIDTH 480 0
DWIDTH 8 0
BBX 9 16 0 -5
BITMAP
8000
4000
4000
2000
2000
1000
1000
0800
0800
0400
0400
0200
0200
0100
0100
0080
ENDCHAR

STARTCHAR bracketright
ENCODING 93
SWIDTH 320 0
DWIDTH 4 0
BBX 6 16 -1 -5
BITMAP
1C
04
04
04
08
08
08
08
10
10
10
10
20
20
20
E0
ENDCHAR

STARTCHAR asciicircum
ENCODING 94
SWIDTH 520 0
DWIDTH 9 0
BBX 4 4 3 7
BITMAP
20
60
90
90
ENDCHAR

STARTCHAR underscore
ENCODING 95
SWIDTH 500 0
DWIDTH 9 0
BBX 9 1 0 -2
BITMAP
FF80
ENDCHAR

STARTCHAR quoteleft
ENCODING 96
SWIDTH 240 0
DWIDTH 4 0
BBX 2 4 2 7
BITMAP
40
80
80
80
ENDCHAR

STARTCHAR a
ENCODING 97
SWIDTH 420 0
DWIDTH 7 0
BBX 7 7 1 0
BITMAP
1C
24
44
88
88
9A
EC
ENDCHAR

STARTCHAR b
ENCODING 98
SWIDTH 420 0
DWIDTH 7 0
BBX 6 11 1 0
BITMAP
18
24
20
20
58
64
44
84
84
88
70
ENDCHAR

STARTCHAR c
ENCODING 99
SWIDTH 340 0
DWIDTH 6 0
BBX 5 7 1 0
BITMAP
30
48
40
80
80
90
60
ENDCHAR

STARTCHAR d
ENCODING 100
SWIDTH 440 0
DWIDTH 7 0
BBX 10 11 1 0
BITMAP
0180
0240
0200
0200
3400
4C00
8400
8800
8800
9A00
6C00
ENDCHAR

STARTCHAR e
ENCODING 101
SWIDTH 340 0
DWIDTH 6 0
BBX 5 7 1 0
BITMAP
30
48
88
F0
80
90
60
ENDCHAR

STARTCHAR f
ENCODING 102
SWIDTH 320 0
DWIDTH 5 0
BBX 11 16 -4 -5
BITMAP
00C0
0120
0100
0100
07C0
0200
0200
0200
0400
0400
0400
0400
0800
0800
8800
7000
ENDCHAR

STARTCHAR g
ENCODING 103
SWIDTH 400 0
DWIDTH 7 0
BBX 8 12 -1 -5
BITMAP
07
09
11
12
22
26
3A
42
82
84
84
78
ENDCHAR

STARTCHAR h
ENCODING 104
SWIDTH 440 0
DWIDTH 7 0
BBX 7 11 0 0
BITMAP
18
24
20
20
38
44
44
44
88
8A
8C
ENDCHAR

STARTCHAR i
ENCODING 105
SWIDTH 240 0
DWIDTH 4 0
BBX 3 10 1 0
BITMAP
20
20
00
40
C0
40
80
80
A0
C0
ENDCHAR

STARTCHAR j
ENCODING 106
SWIDTH 220 0
DWIDTH 4 0
BBX 7 15 -2 -5
BITMAP
02
02
00
04
0C
04
04
08
08
08
08
10
10
90
60
ENDCHAR

STARTCHAR k
ENCODING 107
SWIDTH 440 0
DWIDTH 7 0
BBX 9 14 1 -3
BITMAP
1800
2400
2000
4000
5800
6400
5800
A000
9000
8800
8800
0800
0480
0300
ENDCHAR

STARTCHAR l
ENCODING 108
SWIDTH 240 0
DWIDTH 4 0
BBX 6 11 1 0
BITMAP
18
24
20
20
40
40
40
80
80
A0
C0
ENDCHAR

STARTCHAR m
ENCODING 109
SWIDTH 620 0
DWIDTH 10 0
BBX 9 7 1 0
BITMAP
5B00
ED00
4900
4900
9200
9280
9300
ENDCHAR

STARTCHAR n
ENCODING 110
SWIDTH 460 0
DWIDTH 8 0
BBX 7 7 1 0
BITMAP
5C
E4
44
44
88
8A
8C
ENDCHAR

STARTCHAR o
ENCODING 111
SWIDTH 400 0
DWIDTH 7 0
BBX 6 7 1 0
BITMAP
38
44
44
84
88
88
70
ENDCHAR

STARTCHAR p
ENCODING 112
SWIDTH 440 0
DWIDTH 7 0
BBX 8 11 -1 -4
BITMAP
16
39
11
21
21
32
2C
40
40
40
E0
ENDCHAR

STARTCHAR q
ENCODING 113
SWIDTH 400 0
DWIDTH 7 0
BBX 6 11 1 -4
BITMAP
34
4C
84
88
88
98
68
10
10
10
38
ENDCHAR

STARTCHAR r
ENCODING 114
SWIDTH 300 0
DWIDTH 5 0
BBX 5 7 1 0
BITMAP
58
E0
40
40
80
80
80
ENDCHAR

STARTCHAR s
ENCODING 115
SWIDTH 320 0
DWIDTH 5 0
BBX 5 7 1 0
BITMAP
30
48
40
20
10
90
60
ENDCHAR

STARTCHAR t
ENCODING 116
SWIDTH 320 0
DWIDTH 5 0
BBX 4 9 1 0
BITMAP
20
20
F0
40
40
80
80
90
60
ENDCHAR

STARTCHAR u
ENCODING 117
SWIDTH 460 0
DWIDTH 8 0
BBX 7 7 1 0
BITMAP
44
C4
44
88
88
9A
6C
ENDCHAR

STARTCHAR v
ENCODING 118
SWIDTH 440 0
DWIDTH 7 0
BBX 8 7 0 0
BITMAP
72
91
91
22
2C
30
20
ENDCHAR

STARTCHAR w
ENCODING 119
SWIDTH 680 0
DWIDTH 12 0
BBX 12 7 0 0
BITMAP
7120
9110
9310
2520
2940
3180
2100
ENDCHAR

STARTCHAR x
ENCODING 120
SWIDTH 420 0
DWIDTH 7 0
BBX 10 10 0 -3
BITMAP
1980
2A00
0C00
0C00
1400
2400
C400
0200
0240
0180
ENDCHAR

STARTCHAR y
ENCODING 121
SWIDTH 400 0
DWIDTH 7 0
BBX 8 12 -1 -5
BITMAP
32
49
09
09
0A
06
04
04
08
08
90
60
ENDCHAR

STARTCHAR z
ENCODING 122
SWIDTH 440 0
DWIDTH 7 0
BBX 7 7 0 0
BITMAP
1E
24
08
30
42
62
9C
ENDCHAR

STARTCHAR braceleft
ENCODING 123
SWIDTH 240 0
DWIDTH 4 0
BBX 5 16 0 -5
BITMAP
18
20
20
20
20
40
80
80
40
40
40
80
80
80
80
60
ENDCHAR

STARTCHAR bar
ENCODING 124
SWIDTH 520 0
DWIDTH 9 0
BBX 1 16 4 -5
BITMAP
80
80
80
80
80
80
80
80
80
80
80
80
80
80
80
80
ENDCHAR

STARTCHAR braceright
ENCODING 125
SWIDTH 240 0
DWIDTH 4 0
BBX 5 16 -1 -5
BITMAP
30
08
08
08
08
10
10
10
08
08
10
20
20
20
20
C0
ENDCHAR

STARTCHAR asciitilde
ENCODING 126
SWIDTH 520 0
DWIDTH 9 0
BBX 8 2 1 4
BITMAP
71
8E
ENDCHAR

STARTCHAR space
ENCODING 160
SWIDTH 220 0
DWIDTH 5 0
BBX 0 0 0 0
BITMAP
ENDCHAR

STARTCHAR exclamdown
ENCODING 161
SWIDTH 280 0
DWIDTH 5 0
BBX 3 10 1 -3
BITMAP
60
60
00
40
40
40
80
80
80
80
ENDCHAR

STARTCHAR cent
ENCODING 162
SWIDTH 440 0
DWIDTH 7 0
BBX 7 11 0 -2
BITMAP
02
04
1C
2A
28
50
50
64
78
40
80
ENDCHAR

STARTCHAR sterling
ENCODING 163
SWIDTH 480 0
DWIDTH 8 0
BBX 9 11 0 0
BITMAP
0380
0400
0800
1000
1000
1000
7C00
2000
2000
2200
DC00
ENDCHAR

STARTCHAR currency
ENCODING 164
SWIDTH 600 0
DWIDTH 10 0
BBX 7 7 2 1
BITMAP
BA
44
82
82
82
44
BA
ENDCHAR

STARTCHAR yen
ENCODING 165
SWIDTH 720 0
DWIDTH 12 0
BBX 12 10 0 0
BITMAP
3870
4440
8480
8500
0A00
7FE0
0800
7FE0
0800
3E00
ENDCHAR

STARTCHAR brokenbar
ENCODING 166
SWIDTH 520 0
DWIDTH 9 0
BBX 1 16 4 -4
BITMAP
80
80
80
80
80
80
00
00
00
00
00
80
80
80
80
80
ENDCHAR

STARTCHAR section
ENCODING 167
SWIDTH 420 0
DWIDTH 7 0
BBX 10 15 0 -3
BITMAP
0380
0440
0C00
1400
1400
1200
1200
1200
0A00
0A00
0A00
0A00
0C00
8800
7000
ENDCHAR

STARTCHAR dieresis
ENCODING 168
SWIDTH 360 0
DWIDTH 6 0
BBX 5 2 1 8
BITMAP
D8
D8
ENDCHAR

STARTCHAR copyright
ENCODING 169
SWIDTH 740 0
DWIDTH 13 0
BBX 13 12 0 0
BITMAP
1FC0
6030
4790
8848
9048
9008
9008
9048
8848
4790
6030
1FC0
ENDCHAR

STARTCHAR ordfeminine
ENCODING 170
SWIDTH 260 0
DWIDTH 4 0
BBX 4 5 0 5
BITMAP
30
50
90
A0
F0
ENDCHAR

STARTCHAR guillemotleft
ENCODING 171
SWIDTH 340 0
DWIDTH 6 0
BBX 5 6 1 0
BITMAP
28
50
A0
A0
50
50
ENDCHAR

STARTCHAR logicalnot
ENCODING 172
SWIDTH 600 0
DWIDTH 10 0
BBX 7 4 2 3
BITMAP
FE
02
02
02
ENDCHAR

STARTCHAR hyphen
ENCODING 173
SWIDTH 280 0
DWIDTH 5 0
BBX 4 1 1 3
BITMAP
F0
ENDCHAR

STARTCHAR registered
ENCODING 174
SWIDTH 740 0
DWIDTH 13 0
BBX 13 12 0 0
BITMAP
1FC0
6030
5F10
8888
8888
8888
8F08
8908
8888
5C50
6030
1FC0
ENDCHAR

STARTCHAR macron
ENCODING 175
SWIDTH 440 0
DWIDTH 7 0
BBX 4 1 2 8
BITMAP
F0
ENDCHAR

STARTCHAR degree
ENCODING 176
SWIDTH 400 0
DWIDTH 7 0
BBX 5 5 1 5
BITMAP
70
88
88
88
70
ENDCHAR

STARTCHAR plusminus
ENCODING 177
SWIDTH 520 0
DWIDTH 9 0
BBX 7 9 1 0
BITMAP
10
10
10
FE
10
10
10
00
FE
ENDCHAR

STARTCHAR twosuperior
ENCODING 178
SWIDTH 264 0
DWIDTH 4 0
BBX 4 6 0 4
BITMAP
20
50
10
20
40
E0
ENDCHAR

STARTCHAR threesuperior
ENCODING 179
SWIDTH 264 0
DWIDTH 4 0
BBX 4 6 0 4
BITMAP
60
10
60
10
20
C0
ENDCHAR

STARTCHAR acute
ENCODING 180
SWIDTH 300 0
DWIDTH 5 0
BBX 3 2 1 8
BITMAP
60
80
ENDCHAR

STARTCHAR mu
ENCODING 181
SWIDTH 460 0
DWIDTH 8 0
BBX 7 9 1 -2
BITMAP
22
22
22
44
44
4C
74
80
80
ENDCHAR

STARTCHAR paragraph
ENCODING 182
SWIDTH 500 0
DWIDTH 9 0
BBX 9 14 0 -3
BITMAP
0100
0F80
1200
2200
2200
2200
1F00
0400
0400
0400
0800
0800
9000
6000
ENDCHAR

STARTCHAR periodcentered
ENCODING 183
SWIDTH 220 0
DWIDTH 4 0
BBX 2 2 1 4
BITMAP
C0
C0
ENDCHAR

STARTCHAR cedilla
ENCODING 184
SWIDTH 300 0
DWIDTH 5 0
BBX 3 4 1 -4
BITMAP
60
20
60
C0
ENDCHAR

STARTCHAR onesuperior
ENCODING 185
SWIDTH 264 0
DWIDTH 4 0
BBX 3 6 1 4
BITMAP
20
E0
20
40
40
E0
ENDCHAR

STARTCHAR ordmasculine
ENCODING 186
SWIDTH 260 0
DWIDTH 4 0
BBX 4 5 0 5
BITMAP
70
90
90
90
E0
ENDCHAR

STARTCHAR guillemotright
ENCODING 187
SWIDTH 380 0
DWIDTH 6 0
BBX 5 6 1 0
BITMAP
50
50
28
28
50
A0
ENDCHAR

STARTCHAR onequarter
ENCODING 188
SWIDTH 660 0
DWIDTH 11 0
BBX 9 11 2 0
BITMAP
2200
E200
2400
4400
4800
E900
1300
1500
2F80
2200
4200
ENDCHAR

STARTCHAR onehalf
ENCODING 189
SWIDTH 660 0
DWIDTH 11 0
BBX 8 11 2 0
BITMAP
22
E2
24
44
48
EA
15
11
22
24
4E
ENDCHAR

STARTCHAR threequarters
ENCODING 190
SWIDTH 660 0
DWIDTH 11 0
BBX 10 11 1 0
BITMAP
6100
1100
6200
1200
2400
C480
0980
0A80
17C0
1100
2100
ENDCHAR

STARTCHAR questiondown
ENCODING 191
SWIDTH 400 0
DWIDTH 7 0
BBX 6 10 1 -3
BITMAP
0C
0C
00
08
08
30
40
80
90
60
ENDCHAR

STARTCHAR Agrave
ENCODING 192
SWIDTH 620 0
DWIDTH 11 0
BBX 12 16 -1 -2
BITMAP
0180
0080
0040
0000
03E0
0420
0460
02A0
0120
0240
07C0
0440
0840
10F0
2000
C000
ENDCHAR

STARTCHAR Aacute
ENCODING 193
SWIDTH 620 0
DWIDTH 11 0
BBX 12 16 -1 -2
BITMAP
0030
0020
0040
0000
03E0
0420
0460
02A0
0120
0240
07C0
0440
0840
10F0
2000
C000
ENDCHAR

STARTCHAR Acircumflex
ENCODING 194
SWIDTH 620 0
DWIDTH 11 0
BBX 12 16 -1 -2
BITMAP
0040
00A0
0110
0000
03E0
0420
0460
02A0
0120
0240
07C0
0440
0840
10F0
2000
C000
ENDCHAR

STARTCHAR Atilde
ENCODING 195
SWIDTH 620 0
DWIDTH 11 0
BBX 13 15 -1 -2
BITMAP
00C8
0130
0000
03E0
0420
0460
04A0
0120
0240
07C0
0440
0840
10F0
2000
C000
ENDCHAR

STARTCHAR Adieresis
ENCODING 196
SWIDTH 620 0
DWIDTH 11 0
BBX 12 15 -1 -2
BITMAP
0110
0110
0000
03E0
0420
0460
02A0
0120
0240
07C0
0440
0840
10F0
2000
C000
ENDCHAR

STARTCHAR Aring
ENCODING 197
SWIDTH 620 0
DWIDTH 11 0
BBX 12 16 -1 -2
BITMAP
0060
0090
0060
0000
03E0
0420
0460
04A0
0120
0240
07C0
0440
0840
10F0
2000
C000
ENDCHAR

STARTCHAR AE
ENCODING 198
SWIDTH 740 0
DWIDTH 13 0
BBX 14 11 -1 -1
BITMAP
01FC
00C4
0140
0248
04F8
0488
0F80
0900
1104
23F8
C000
ENDCHAR

STARTCHAR Ccedilla
ENCODING 199
SWIDTH 520 0
DWIDTH 9 0
BBX 9 15 0 -5
BITMAP
1F00
2080
4080
4000
8000
8000
8000
8000
8200
4200
3C00
1000
0800
0800
7000
ENDCHAR

STARTCHAR Egrave
ENCODING 200
SWIDTH 620 0
DWIDTH 11 0
BBX 10 14 1 0
BITMAP
0C00
0400
0200
0000
3FC0
4440
8400
8880
8F80
4880
1000
1040
1040
7F80
ENDCHAR

STARTCHAR Eacute
ENCODING 201
SWIDTH 620 0
DWIDTH 11 0
BBX 10 14 1 0
BITMAP
0300
0200
0400
0000
3FC0
4440
8400
8880
8F80
4880
1000
1040
1040
7F80
ENDCHAR

STARTCHAR Ecircumflex
ENCODING 202
SWIDTH 620 0
DWIDTH 11 0
BBX 10 14 1 0
BITMAP
0200
0500
0880
0000
3FC0
4440
8400
8880
8F80
4880
1000
1040
1040
7F80
ENDCHAR

STARTCHAR Edieresis
ENCODING 203
SWIDTH 620 0
DWIDTH 11 0
BBX 10 13 1 0
BITMAP
0880
0880
0000
3FC0
4440
8400
8880
8F80
4880
1000
1040
1040
7F80
ENDCHAR

STARTCHAR Igrave
ENCODING 204
SWIDTH 380 0
DWIDTH 6 0
BBX 7 14 0 0
BITMAP
30
10
08
00
3E
08
08
10
10
10
20
20
20
F8
ENDCHAR

STARTCHAR Iacute
ENCODING 205
SWIDTH 380 0
DWIDTH 6 0
BBX 7 14 0 0
BITMAP
06
04
08
00
3E
08
08
10
10
10
20
20
20
F8
ENDCHAR

STARTCHAR Icircumflex
ENCODING 206
SWIDTH 380 0
DWIDTH 6 0
BBX 8 14 0 0
BITMAP
04
0A
11
00
3E
08
08
10
10
10
20
20
20
F8
ENDCHAR

STARTCHAR Idieresis
ENCODING 207
SWIDTH 380 0
DWIDTH 6 0
BBX 7 13 0 0
BITMAP
12
12
00
3E
08
08
10
10
10
20
20
20
F8
ENDCHAR

STARTCHAR Gbreve
ENCODING 208
SWIDTH 620 0
DWIDTH 11 0
BBX 9 17 2 -4
BITMAP
1100
0E00
0000
1F00
2080
4080
4000
8000
8000
8700
8200
4200
3C00
0400
0400
4800
3000
ENDCHAR

STARTCHAR Ntilde
ENCODING 209
SWIDTH 700 0
DWIDTH 12 0
BBX 14 14 0 -1
BITMAP
00C8
0130
0000
1C0C
2610
4610
4520
2520
0920
0940
08C0
08C0
9040
6000
ENDCHAR

STARTCHAR Ograve
ENCODING 210
SWIDTH 600 0
DWIDTH 10 0
BBX 10 14 0 0
BITMAP
0C00
0400
0200
0000
1F00
2080
4040
4040
8040
8040
8080
8080
4100
3E00
ENDCHAR

STARTCHAR Oacute
ENCODING 211
SWIDTH 600 0
DWIDTH 10 0
BBX 10 14 0 0
BITMAP
0300
0200
0400
0000
1F00
2080
4040
4040
8040
8040
8080
8080
4100
3E00
ENDCHAR

STARTCHAR Ocircumflex
ENCODING 212
SWIDTH 600 0
DWIDTH 10 0
BBX 10 14 0 0
BITMAP
0200
0500
0880
0000
1F00
2080
4040
4040
8040
8040
8080
8080
4100
3E00
ENDCHAR

STARTCHAR Otilde
ENCODING 213
SWIDTH 600 0
DWIDTH 10 0
BBX 10 13 0 0
BITMAP
0640
0980
0000
1F00
2080
4040
4040
8040
8040
8080
8080
4100
3E00
ENDCHAR

STARTCHAR Odieresis
ENCODING 214
SWIDTH 600 0
DWIDTH 10 0
BBX 10 13 0 0
BITMAP
0880
0880
0000
1F00
2080
4040
4040
8040
8040
8080
8080
4100
3E00
ENDCHAR

STARTCHAR multiply
ENCODING 215
SWIDTH 520 0
DWIDTH 9 0
BBX 6 6 2 2
BITMAP
84
48
30
30
48
84
ENDCHAR

STARTCHAR Oslash
ENCODING 216
SWIDTH 660 0
DWIDTH 10 0
BBX 10 12 0 -1
BITMAP
0040
1F80
2180
4240
4440
8840
8840
9080
A080
4100
BE00
8000
ENDCHAR

STARTCHAR Ugrave
ENCODING 217
SWIDTH 740 0
DWIDTH 13 0
BBX 11 14 1 0
BITMAP
0600
0200
0100
0040
7820
8820
9020
5020
1040
2040
2040
2080
1100
0E00
ENDCHAR

STARTCHAR Uacute
ENCODING 218
SWIDTH 740 0
DWIDTH 13 0
BBX 11 14 1 0
BITMAP
0180
0100
0200
0040
7820
8820
9020
5020
1040
2040
2040
2080
1100
0E00
ENDCHAR

STARTCHAR Ucircumflex
ENCODING 219
SWIDTH 740 0
DWIDTH 13 0
BBX 11 14 1 0
BITMAP
0200
0500
0880
0040
7820
8820
9020
5020
1040
2040
2040
2080
1100
0E00
ENDCHAR

STARTCHAR Udieresis
ENCODING 220
SWIDTH 740 0
DWIDTH 13 0
BBX 11 14 1 0
BITMAP
0880
0880
0000
0040
7820
8820
9020
5020
1040
2040
2040
2080
1100
0E00
ENDCHAR

STARTCHAR Idotaccent
ENCODING 221
SWIDTH 380 0
DWIDTH 6 0
BBX 7 13 0 0
BITMAP
04
04
00
3E
08
08
10
10
10
20
20
20
F8
ENDCHAR

STARTCHAR Scedilla
ENCODING 222
SWIDTH 460 0
DWIDTH 8 0
BBX 8 15 0 -5
BITMAP
0F
11
21
20
18
04
04
04
84
88
70
20
10
10
E0
ENDCHAR

STARTCHAR germandbls
ENCODING 223
SWIDTH 420 0
DWIDTH 7 0
BBX 11 16 -3 -4
BITMAP
00C0
0120
0220
0220
0240
0280
0480
0440
0440
0440
0A40
0980
0800
0800
1000
E000
ENDCHAR

STARTCHAR agrave
ENCODING 224
SWIDTH 420 0
DWIDTH 7 0
BBX 7 11 1 0
BITMAP
30
10
08
00
1C
24
44
88
88
9A
EC
ENDCHAR

STARTCHAR aacute
ENCODING 225
SWIDTH 420 0
DWIDTH 7 0
BBX 7 11 1 0
BITMAP
06
04
08
00
1C
24
44
88
88
9A
EC
ENDCHAR

STARTCHAR acircumflex
ENCODING 226
SWIDTH 420 0
DWIDTH 7 0
BBX 7 11 1 0
BITMAP
08
14
22
00
1C
24
44
88
88
9A
EC
ENDCHAR

STARTCHAR atilde
ENCODING 227
SWIDTH 420 0
DWIDTH 7 0
BBX 8 10 1 0
BITMAP
19
26
00
1C
24
44
88
88
9A
EC
ENDCHAR

STARTCHAR adieresis
ENCODING 228
SWIDTH 420 0
DWIDTH 7 0
BBX 7 10 1 0
BITMAP
22
22
00
1C
24
44
88
88
9A
EC
ENDCHAR

STARTCHAR aring
ENCODING 229
SWIDTH 420 0
DWIDTH 7 0
BBX 7 11 1 0
BITMAP
08
14
08
00
1C
24
44
88
88
9A
EC
ENDCHAR

STARTCHAR ae
ENCODING 230
SWIDTH 540 0
DWIDTH 9 0
BBX 8 7 1 0
BITMAP
1E
29
49
8E
90
B2
CC
ENDCHAR

STARTCHAR ccedilla
ENCODING 231
SWIDTH 340 0
DWIDTH 6 0
BBX 5 11 1 -4
BITMAP
30
48
40
80
80
90
60
40
20
20
C0
ENDCHAR

STARTCHAR egrave
ENCODING 232
SWIDTH 340 0
DWIDTH 6 0
BBX 5 11 1 0
BITMAP
60
20
10
00
30
48
88
F0
80
90
60
ENDCHAR

STARTCHAR eacute
ENCODING 233
SWIDTH 340 0
DWIDTH 6 0
BBX 5 11 1 0
BITMAP
18
10
20
00
30
48
88
F0
80
90
60
ENDCHAR

STARTCHAR ecircumflex
ENCODING 234
SWIDTH 340 0
DWIDTH 6 0
BBX 6 11 1 0
BITMAP
10
28
44
00
30
48
88
F0
80
90
60
ENDCHAR

STARTCHAR edieresis
ENCODING 235
SWIDTH 340 0
DWIDTH 6 0
BBX 6 10 1 0
BITMAP
44
44
00
30
48
88
F0
80
90
60
ENDCHAR

STARTCHAR igrave
ENCODING 236
SWIDTH 240 0
DWIDTH 4 0
BBX 4 11 0 0
BITMAP
C0
40
20
00
20
60
20
40
40
50
60
ENDCHAR

STARTCHAR iacute
ENCODING 237
SWIDTH 240 0
DWIDTH 4 0
BBX 4 11 1 0
BITMAP
30
20
40
00
40
C0
40
80
80
A0
C0
ENDCHAR

STARTCHAR icircumflex
ENCODING 238
SWIDTH 240 0
DWIDTH 4 0
BBX 5 11 1 0
BITMAP
20
50
88
00
40
C0
40
80
80
A0
C0
ENDCHAR

STARTCHAR idieresis
ENCODING 239
SWIDTH 240 0
DWIDTH 4 0
BBX 4 10 1 0
BITMAP
90
90
00
40
C0
40
80
80
A0
C0
ENDCHAR

STARTCHAR gbreve
ENCODING 240
SWIDTH 400 0
DWIDTH 7 0
BBX 9 14 -1 -4
BITMAP
0880
0700
0000
0700
0900
1100
1200
2200
2E00
3200
4200
8400
8400
7800
ENDCHAR

STARTCHAR ntilde
ENCODING 241
SWIDTH 460 0
DWIDTH 8 0
BBX 8 10 1 0
BITMAP
19
26
00
5C
E4
44
44
88
8A
8C
ENDCHAR

STARTCHAR ograve
ENCODING 242
SWIDTH 400 0
DWIDTH 7 0
BBX 6 11 1 0
BITMAP
30
10
08
00
38
44
44
84
88
88
70
ENDCHAR

STARTCHAR oacute
ENCODING 243
SWIDTH 400 0
DWIDTH 7 0
BBX 6 11 1 0
BITMAP
0C
08
10
00
38
44
44
84
88
88
70
ENDCHAR

STARTCHAR ocircumflex
ENCODING 244
SWIDTH 400 0
DWIDTH 7 0
BBX 7 11 1 0
BITMAP
08
14
22
00
38
44
44
84
88
88
70
ENDCHAR

STARTCHAR otilde
ENCODING 245
SWIDTH 400 0
DWIDTH 7 0
BBX 7 10 1 0
BITMAP
32
4C
00
38
44
44
84
88
88
70
ENDCHAR

STARTCHAR odieresis
ENCODING 246
SWIDTH 400 0
DWIDTH 7 0
BBX 6 10 1 0
BITMAP
44
44
00
38
44
44
84
88
88
70
ENDCHAR

STARTCHAR divide
ENCODING 247
SWIDTH 520 0
DWIDTH 9 0
BBX 7 6 1 2
BITMAP
10
00
00
FE
00
10
ENDCHAR

STARTCHAR oslash
ENCODING 248
SWIDTH 440 0
DWIDTH 7 0
BBX 6 7 1 0
BITMAP
3C
4C
54
A4
A8
C8
F0
ENDCHAR

STARTCHAR ugrave
ENCODING 249
SWIDTH 460 0
DWIDTH 8 0
BBX 7 11 2 0
BITMAP
60
20
10
00
44
C4
44
88
88
9A
6C
ENDCHAR

STARTCHAR uacute
ENCODING 250
SWIDTH 460 0
DWIDTH 8 0
BBX 7 11 2 0
BITMAP
0C
08
10
00
44
C4
44
88
88
9A
6C
ENDCHAR

STARTCHAR ucircumflex
ENCODING 251
SWIDTH 460 0
DWIDTH 8 0
BBX 7 11 2 0
BITMAP
10
28
44
00
44
C4
44
88
88
9A
6C
ENDCHAR

STARTCHAR udieresis
ENCODING 252
SWIDTH 460 0
DWIDTH 8 0
BBX 7 10 2 0
BITMAP
44
44
00
44
C4
44
88
88
9A
6C
ENDCHAR

STARTCHAR dotlessi
ENCODING 253
SWIDTH 240 0
DWIDTH 4 0
BBX 3 7 1 0
BITMAP
40
C0
40
80
80
A0
C0
ENDCHAR

STARTCHAR scedilla
ENCODING 254
SWIDTH 320 0
DWIDTH 5 0
BBX 5 11 1 -4
BITMAP
30
48
40
20
10
90
60
40
20
20
C0
ENDCHAR

STARTCHAR ydieresis
ENCODING 255
SWIDTH 400 0
DWIDTH 7 0
BBX 8 15 -1 -5
BITMAP
11
11
00
32
49
09
09
0A
06
04
04
08
08
90
60
ENDCHAR
ENDFONT
